<?xml version="1.0" encoding="utf-8"?>
<!-- Generator: Adobe Illustrator 23.0.0, SVG Export Plug-In . SVG Version: 6.00 Build 0)  -->
<svg version="1.1" id="Layer_1" xmlns="http://www.w3.org/2000/svg" xmlns:xlink="http://www.w3.org/1999/xlink" x="0px" y="0px"
	 viewBox="0 0 430 430" style="enable-background:new 0 0 430 430;" xml:space="preserve">
<style type="text/css">
	.st0{fill:#333333;}
	.st1{fill:#FEFEFE;}
	.st2{fill:#CD253C;}
</style>
<g>
	<circle class="st0" cx="215" cy="215" r="214.82"/>
	<circle class="st1" cx="215" cy="215" r="205.22"/>
	<circle class="st0" cx="215" cy="215" r="186.45"/>
	<path class="st2" d="M226.91,141.14c0,27.92,0,55.84-0.01,83.77c0,3.31,0.39,2.89-3,2.9c-6.37,0.02-12.74-0.09-19.11,0.06
		c-2.32,0.06-2.82-0.74-2.82-2.93c0.06-47.84,0.05-95.69,0.04-143.53c0-3.32,0.39-2.91-2.98-2.92c-8-0.02-16,0-24-0.01
		c-2.48,0-2.66-0.24-1.88-2.54c2.11-6.23,4.23-12.46,6.37-18.68c0.63-1.84,1.55-2.89,3.93-2.86c13.55,0.16,27.11,0.07,40.66,0.08
		c3.16,0,2.79-0.35,2.79,2.89C226.91,85.3,226.91,113.22,226.91,141.14z"/>
	<g>
		<g>
			<path class="st1" d="M215.44,313.74c-15.01,0.37-28.48-2.81-41.37-8.64c-7.58-3.42-14.58-7.77-21.09-12.98
				c-3.69-2.95-7.13-6.14-10.33-9.57c-5.65-6.04-10.38-12.76-14.46-19.98c-4.98-8.82-8.34-18.23-10.4-28.08
				c-0.79-3.81-1.44-7.69-1.59-11.63c-0.15-4.04-0.44-8.06-0.18-12.13c0.32-5.11,0.96-10.15,1.73-15.19c0.76-5,2.35-9.78,4.02-14.49
				c1.62-4.6,3.65-9.08,6.08-13.33c2.68-4.67,5.43-9.32,8.84-13.51c3.62-4.46,7.35-8.82,11.77-12.54c0.23-0.19,0.45-0.38,0.66-0.58
				c1.06-1,1.96-2.74,3.32-2.67c1.18,0.06,1.92,1.81,2.82,2.86c3.95,4.59,7.56,9.45,11.17,14.31c0.6,0.81,1.32,1.53,1.92,2.35
				c1.79,2.43,1.92,2.37-0.32,4.22c-7.61,6.31-13,14.24-17.19,23.12c-1.9,4.04-3.52,8.17-4.53,12.48
				c-0.99,4.21-1.55,8.51-1.82,12.88c-0.25,4-0.24,7.93,0.19,11.88c1.24,11.4,4.93,22,11.28,31.53
				c5.71,8.57,13.02,15.61,21.82,21.05c7.37,4.55,15.35,7.67,23.81,9.22c7.07,1.3,14.26,1.68,21.51,0.64
				c5.3-0.76,10.5-1.67,15.52-3.55c7.42-2.77,14.21-6.56,20.44-11.51c6.51-5.17,11.67-11.41,16.07-18.37
				c3-4.74,5.16-9.86,6.85-15.18c2.16-6.77,3.07-13.68,3.25-20.81c0.21-8.39-1.17-16.46-3.88-24.23
				c-2.7-7.76-6.74-14.92-12.12-21.27c-3.62-4.27-7.56-8.19-12.08-11.46c-1.32-0.96-0.91-1.68-0.33-2.42
				c5.29-6.7,10.64-13.36,15.95-20.04c0.57-0.72,0.96-0.57,1.59-0.03c2.59,2.23,5.33,4.29,7.85,6.59
				c8.9,8.12,15.83,17.78,21.28,28.45c3.92,7.67,6.52,15.87,8.3,24.32c1.4,6.66,1.96,13.42,1.93,20.17
				c-0.02,4.38-0.14,8.81-1.02,13.18c-0.87,4.33-1.48,8.71-2.67,12.99c-1.53,5.51-3.64,10.8-6.07,15.94
				c-3.11,6.58-7,12.7-11.59,18.4c-4.24,5.26-8.9,10.05-14.02,14.46c-6.62,5.69-13.86,10.39-21.74,14.06
				c-7.89,3.68-16.11,6.39-24.74,7.81C226.18,313.39,220.45,314,215.44,313.74z"/>
			<path class="st1" d="M363.58,213.19c-0.49,5.63-0.87,11.9-1.5,18.14c-0.36,3.61-0.99,7.19-1.53,10.76
				c-0.71,4.62-2.26,9.12-3.5,13.66c-1.8,6.61-4.25,13-7.1,19.2c-2.86,6.22-6.23,12.18-9.89,18.01
				c-4.94,7.87-10.57,15.17-16.84,21.96c-7.01,7.59-14.92,14.2-23.27,20.29c-1.18,0.86-2.03,0.33-2.7-0.35
				c-6.48-6.5-12.83-13.13-19.36-19.57c-2.98-2.94-5.88-5.97-8.9-8.87c-0.92-0.88-1.04-1.02,0.08-1.77
				c3.71-2.47,7.45-4.9,10.94-7.69c4.47-3.57,8.78-7.32,12.65-11.54c3.74-4.08,7.15-8.46,10.25-13.04c2.13-3.15,3.98-6.51,5.75-9.88
				c2.42-4.62,4.5-9.41,6.17-14.35c0.88-2.62,1.63-5.3,2.38-7.97c1.07-3.82,1.72-7.7,2.23-11.6c0.4-3.02,0.62-6.08,0.93-9.11
				c0.27-2.64,0.4-5.27,0.27-7.88c-0.3-6.08-0.95-12.12-2-18.14c-0.56-3.2-1.18-6.44-2.12-9.45c-1.67-5.34-3.55-10.66-6.04-15.73
				c-4.19-8.52-9.3-16.4-15.5-23.59c-5.13-5.95-10.66-11.46-17.2-15.86c-2.3-1.55-0.45-2.8,0.36-3.69c3-3.31,5.52-6.99,8.32-10.45
				c4.01-4.96,8.01-9.94,11.99-14.92c1.22-1.52,2.67-2.96,3.47-4.69c0.61-1.32,0.98-0.95,1.67-0.39
				c6.81,5.52,13.45,11.22,19.42,17.65c6,6.45,11.47,13.34,16.26,20.75c4.97,7.69,9.15,15.78,12.64,24.28
				c2.48,6.03,4.67,12.13,6.37,18.38c1.81,6.66,3.19,13.45,3.76,20.37C362.48,201.59,363.03,207.09,363.58,213.19z"/>
			<path class="st1" d="M162.08,305.47c-7.87,7.87-15.67,15.67-23.46,23.46c-1.99,1.99-4.05,3.92-5.94,6
				c-1.17,1.29-2.07,1.09-3.34,0.17c-7.34-5.33-14.36-11.07-20.59-17.63c-5.88-6.2-11.48-12.68-16.22-19.89
				c-3.48-5.3-6.87-10.63-9.79-16.25c-3.52-6.79-6.33-13.88-8.81-21.14c-2.55-7.48-4.26-15.12-5.71-22.86
				c-0.74-3.94-0.81-7.95-1.34-11.9c-0.84-6.25-0.25-12.52-0.41-18.79c-0.13-5.12,0.65-10.22,1.45-15.22
				c1.14-7.15,2.72-14.25,4.9-21.21c2.25-7.18,4.82-14.22,8.17-20.93c4.42-8.84,9.45-17.31,15.55-25.2
				c5.77-7.47,12-14.38,19.01-20.66c1.66-1.48,3.23-3.04,4.95-4.46c0.89-0.73,1.32-0.7,1.98,0.19c5.76,7.84,12.19,15.17,18.04,22.95
				c1.95,2.59,3.8,5.32,6.14,7.64c1.03,1.02,1.08,1.91-0.25,2.99c-5.49,4.45-10.21,9.66-14.66,15.15c-2.82,3.47-5.31,7.17-7.7,10.9
				c-2.3,3.59-4.08,7.56-5.82,11.48c-1.85,4.16-3.61,8.39-4.99,12.72c-1.1,3.46-1.53,7.12-2.35,10.67
				c-2.17,9.4-2.1,18.96-1.64,28.47c0.28,5.67,1.31,11.37,2.66,16.9c1.17,4.81,2.83,9.53,4.72,14.17
				c2.28,5.58,4.92,10.96,8.07,16.07c4.33,7.02,9.41,13.51,15.24,19.33c2.94,2.93,6.1,5.7,9.43,8.25
				C153.41,299.95,157.58,302.84,162.08,305.47z"/>
		</g>
		<path class="st1" d="M179.75,218.89c-0.11-11.75,4.23-20.41,11.98-27.55c0.73-0.68,0.94-0.87,1.71,0.16
			c1.61,2.14,3.37,4.16,4.93,6.35c0.46,0.65,0.6,0.74-0.18,1.4c-7.86,6.75-10.3,18.13-6.46,27.73
			c4.29,10.69,14.96,16.17,25.29,15.15c5-0.49,9.5-2.48,13.43-5.86c4.72-4.06,7.51-9.21,8.32-15.14c0.9-6.64-0.54-12.98-4.89-18.4
			c-1.23-1.54-2.39-3.1-4.12-4.15c-0.74-0.45-1.22-0.97-0.3-1.99c1.78-1.99,3.41-4.13,4.94-6.33c0.65-0.94,0.88-0.24,1.28,0.05
			c4.87,3.56,8.29,8.3,10.73,13.72c2.36,5.26,3.16,10.89,2.67,16.6c-0.58,6.81-3.11,12.92-7.22,18.4
			c-3.12,4.16-7.14,7.28-11.63,9.65c-4,2.11-8.39,3.4-12.97,3.71c-6.19,0.42-12.18-0.56-17.77-3.27
			c-5.85-2.84-10.74-6.96-14.23-12.47C181.65,230.96,179.45,224.74,179.75,218.89z"/>
	</g>
</g>
</svg>
